<?xml version="1.0" encoding="UTF-8" standalone="no"?>
<svg
   xmlns:dc="http://purl.org/dc/elements/1.1/"
   xmlns:cc="http://creativecommons.org/ns#"
   xmlns:rdf="http://www.w3.org/1999/02/22-rdf-syntax-ns#"
   xmlns:svg="http://www.w3.org/2000/svg"
   xmlns="http://www.w3.org/2000/svg"
   xmlns:sodipodi="http://sodipodi.sourceforge.net/DTD/sodipodi-0.dtd"
   xmlns:inkscape="http://www.inkscape.org/namespaces/inkscape"
   id="svg2"
   version="1.1"
   inkscape:version="1.0.1 (3bc2e813f5, 2020-09-07)"
   xml:space="preserve"
   width="261.97751"
   height="298.92624"
   viewBox="0 0 261.97751 298.92624"
   sodipodi:docname="embleme.svg"><metadata
     id="metadata8"><rdf:RDF><cc:Work
         rdf:about=""><dc:format>image/svg+xml</dc:format><dc:type
           rdf:resource="http://purl.org/dc/dcmitype/StillImage" /><dc:title></dc:title></cc:Work></rdf:RDF></metadata><defs
     id="defs6" /><sodipodi:namedview
     pagecolor="#ffffff"
     bordercolor="#666666"
     borderopacity="1"
     objecttolerance="10"
     gridtolerance="10"
     guidetolerance="10"
     inkscape:pageopacity="0"
     inkscape:pageshadow="2"
     inkscape:window-width="1920"
     inkscape:window-height="1017"
     id="namedview4"
     showgrid="false"
     inkscape:zoom="1.8718619"
     inkscape:cx="43.031771"
     inkscape:cy="207.58119"
     inkscape:window-x="-8"
     inkscape:window-y="-8"
     inkscape:window-maximized="1"
     inkscape:current-layer="g10"
     inkscape:document-rotation="0"
     fit-margin-top="0"
     fit-margin-left="0"
     fit-margin-right="0"
     fit-margin-bottom="0" /><g
     id="g10"
     inkscape:groupmode="layer"
     inkscape:label="ink_ext_XXXXXX"
     transform="matrix(1.25,0,0,-1.25,-288.0325,298.92625)"><g
       id="g12"
       transform="scale(0.1)"><path
         d="m 3326.24,2391.41 c -51.02,-96.47 -104.53,-219.51 -128.62,-404.34 -30.79,-235.8 -11.87,-328.77 74.91,-345.11 44.24,-8.45 311.79,-54.85 311.79,-54.85 24.48,-4.39 42.93,5.61 58.74,19.5 26.34,23.29 114.84,83.53 193.09,122.59 74.63,37.29 191.09,81.48 312.71,107.98 -371.93,26.46 -684.72,247.19 -822.62,554.23"
         style="fill:#2b8a5c;fill-opacity:1;fill-rule:nonzero;stroke:none"
         id="path14"
         inkscape:connector-curvature="0" /><path
         d="m 2304.26,1771.11 c 57.2,-92.03 137.1,-199.9 285.08,-313.26 188.84,-144.55 278.78,-174.51 336.36,-107.54 29.4,34.06 203.4,242.58 203.4,242.58 16.06,18.95 16.61,39.95 12.41,60.57 -6.97,34.45 -14.92,141.21 -9.67,228.57 5.03,83.25 25.12,206.18 62.42,323.99 -208.37,-308.09 -555.98,-468.59 -890,-434.91"
         style="fill:#2b8a5c;fill-opacity:1;fill-rule:nonzero;stroke:none"
         id="path16"
         inkscape:connector-curvature="0" /><path
         d="m 2329.66,576.289 c 108.25,3.563 241.65,18.84 413.74,90.25 219.62,91.199 290.66,154.16 261.43,237.461 -14.89,42.52 -108.41,297.48 -108.41,297.48 -8.43,23.35 -26.32,34.35 -46.32,41.07 -33.22,11.17 -129.69,57.69 -202.65,105.93 -69.58,46.07 -166.14,124.81 -249.44,216.07 162.6,-334.5 127.87,-715.788 -68.35,-988.261"
         style="fill:#2b8a5c;fill-opacity:1;fill-rule:nonzero;stroke:none"
         id="path18"
         inkscape:connector-curvature="0" /><path
         d="m 3377.15,0 c 51.01,96.4219 104.53,219.52 128.62,404.352 30.78,235.796 11.84,328.82 -74.97,345.16 -44.18,8.277 -311.74,54.797 -311.74,54.797 -24.53,4.441 -42.93,-5.559 -58.77,-19.559 C 3034.06,761.629 2945.48,701.27 2867.24,662.211 2792.55,624.969 2676.09,580.738 2555.39,554.172 2926.45,527.781 3239.19,307.051 3377.15,0"
         style="fill:#2b8a5c;fill-opacity:1;fill-rule:nonzero;stroke:none"
         id="path20"
         inkscape:connector-curvature="0" /><path
         d="m 4400.08,620.309 c -57.33,91.972 -137.16,199.89 -285.12,313.261 -189.7,144.49 -279.7,174.61 -337.25,107.59 -29.34,-34.18 -203.42,-242.629 -203.42,-242.629 -16.06,-18.949 -16.62,-39.902 -12.37,-60.64 7,-34.34 14.87,-141.2 9.62,-228.45 -5.12,-83.312 -25.12,-206.23 -62.49,-324.05 208.54,308.097 556.89,468.589 891.03,434.918"
         style="fill:#2b8a5c;fill-opacity:1;fill-rule:nonzero;stroke:none"
         id="path22"
         inkscape:connector-curvature="0" /><path
         d="m 4374.62,1815.18 c -108.31,-3.67 -241.6,-18.73 -414.69,-90.37 -219.56,-91.3 -290.61,-154.1 -261.39,-237.52 14.91,-42.45 108.43,-297.42 108.43,-297.42 8.48,-23.28 26.32,-34.34 46.26,-41.01 33.26,-11.17 129.74,-57.74 202.71,-105.98 70.47,-45.9 166.91,-124.7 250.27,-215.95 -162.61,334.54 -127.81,715.66 68.41,988.25"
         style="fill:#2b8a5c;fill-opacity:1;fill-rule:nonzero;stroke:none"
         id="path24"
         inkscape:connector-curvature="0" /><path
         d="m 3183.19,1556.27 c 12.42,15 31.21,24.55 52.22,24.55 4.41,0 8.75,-0.38 12.95,-1.27 l 331.26,-57.69 c 19.23,-3.28 36.9,-14.67 47.46,-32.95 2.23,-3.78 4,-7.67 5.31,-11.68 l 115.76,-315.81 c 6.83,-18.34 5.73,-39.35 -4.81,-57.47 -2.22,-3.94 -4.73,-7.44 -7.47,-10.61 L 3520.19,835.211 c -12.45,-15.012 -31.21,-24.512 -52.18,-24.512 -4.45,0 -8.73,0.332 -12.98,1.172 l -331.27,57.738 c -19.26,3.223 -36.9,14.723 -47.46,32.84 -2.17,3.832 -3.89,7.731 -5.39,11.781 l -115.62,315.82 c -6.78,18.34 -5.78,39.29 4.75,57.52 2.14,3.78 4.72,7.33 7.48,10.5 l 215.67,258.2"
         style="fill:#2b8a5c;fill-opacity:1;fill-rule:nonzero;stroke:none"
         id="path26"
         inkscape:connector-curvature="0" /></g></g></svg>
